HIERARCHY
ROOT Hips
{
	OFFSET 0.000000 8.830580 0.000000
	CHANNELS 6 Xposition Yposition Zposition Zrotation Yrotation Xrotation 
	JOINT Spine
	{
		OFFSET 0.000000 0.010000 0.000000
		CHANNELS 3 Zrotation Yrotation Xrotation
		JOINT Spine1
		{
			OFFSET 0.000000 2.459130 0.000000
			CHANNELS 3 Zrotation Yrotation Xrotation
			JOINT Neck
			{
				OFFSET 0.000000 2.484630 0.000000
				CHANNELS 3 Zrotation Yrotation Xrotation
				JOINT Head_virtual
				{
					OFFSET 0.000000 0.000000 0.000000
					CHANNELS 3 Zrotation Yrotation Xrotation
					JOINT Head
					{
						OFFSET 0.000000 0.927525 0.000000
						CHANNELS 3 Zrotation Yrotation Xrotation
						End Site
						{
							OFFSET 0.000000 0.000000 0.000000
						}
					}
				}
				JOINT LeftUpArm_virtual
				{
					OFFSET 0.000000 0.000000 0.000000
					CHANNELS 3 Zrotation Yrotation Xrotation
					JOINT LeftUpArm
					{
						OFFSET 1.248820 0.000000 0.000000
						CHANNELS 3 Zrotation Yrotation Xrotation
						JOINT LeftForeArm
						{
							OFFSET 2.597580 0.000000 0.000000
							CHANNELS 3 Zrotation Yrotation Xrotation
							JOINT LeftHand
							{
								OFFSET 2.455420 0.000000 0.000000
								CHANNELS 3 Zrotation Yrotation Xrotation
								End Site
								{
									OFFSET 0.000000 0.000000 0.000000
								}
							}
						}
					}
				}
				JOINT RightUpArm_virtual
				{
					OFFSET -0.000000 -0.000000 -0.000000
					CHANNELS 3 Zrotation Yrotation Xrotation
					JOINT RightUpArm
					{
						OFFSET -1.248820 -0.000000 -0.000000
						CHANNELS 3 Zrotation Yrotation Xrotation
						JOINT RightForeArm
						{
							OFFSET -2.597580 -0.000000 -0.000000
							CHANNELS 3 Zrotation Yrotation Xrotation
							JOINT RightHand
							{
								OFFSET -2.455420 -0.000000 -0.000000
								CHANNELS 3 Zrotation Yrotation Xrotation
								End Site
								{
									OFFSET 0.000000 0.000000 0.000000
								}
							}
						}
					}
				}
			}
		}
	}
	JOINT LeftUpLeg
	{
		OFFSET 1.271939 0.000000 0.000000
		CHANNELS 3 Zrotation Yrotation Xrotation
		JOINT LeftLowLeg
		{
			OFFSET 0.000000 -4.342910 0.000000
			CHANNELS 3 Zrotation Yrotation Xrotation
			JOINT LeftFoot
			{
				OFFSET 0.000000 -4.487670 0.000000
				CHANNELS 3 Zrotation Yrotation Xrotation
				JOINT LeftToeBase
				{
					OFFSET 0.000000 0.000000 1.515070
					CHANNELS 3 Zrotation Yrotation Xrotation
					End Site
					{
						OFFSET 0.000000 0.000000 0.000000
					}
				}
			}
		}
	}
	JOINT RightUpLeg
	{
		OFFSET -1.271939 0.000000 0.000000
		CHANNELS 3 Zrotation Yrotation Xrotation
		JOINT RightLowLeg
		{
			OFFSET 0.000000 -4.342910 0.000000
			CHANNELS 3 Zrotation Yrotation Xrotation
			JOINT RightFoot
			{
				OFFSET 0.000000 -4.487670 0.000000
				CHANNELS 3 Zrotation Yrotation Xrotation
				JOINT RightToeBase
				{
					OFFSET 0.000000 0.000000 1.515070
					CHANNELS 3 Zrotation Yrotation Xrotation
					End Site
					{
						OFFSET 0.000000 0.000000 0.000000
					}
				}
			}
		}
	}
}
MOTION
Frames: 11
Frame Time: 0.041667
-20.273669 6.429740 38.115250 179.018166 10.122915 -14.391109 1.839308 -3.100188 -164.115840 -3.124070 7.849839 12.563423 0.000000 0.000000 0.000000 54.359506 12.308278 30.227855 0.325203 -2.132450 -99.072088 -21.556299 -10.812400 6.519012 -44.280701 -24.748400 14.631100 180.000000 -67.356003 -180.000000 -25.923901 -50.307701 -89.310997 23.915600 0.361900 -3.115997 47.102001 7.977310 27.994995 -180.000000 48.860992 -180.000000 -40.029900 -47.737999 -13.091800 3.160736 -8.607060 128.849989 0.000000 0.000000 69.781403 -15.537744 14.152876 4.710281 0.000000 0.000000 -23.264680 -5.397022 1.739189 127.414610 0.000000 0.000000 69.023903 21.809376 -11.595639 4.537189 0.000000 0.000000 -28.738000 
-20.274209 6.428281 38.115545 179.001651 10.076506 -14.397888 1.781928 -3.096191 -164.106988 -3.175147 7.924755 12.780287 0.000000 0.000000 0.000000 54.290058 12.101550 29.222077 0.276638 -1.595762 -98.933132 -21.800600 -10.972400 6.583008 -44.001900 -24.776199 14.216500 -180.000000 -66.940002 -180.000000 -27.114500 -48.893902 -85.213898 24.037800 0.432439 -3.364990 46.923401 7.552400 27.821014 180.000000 48.811996 180.000000 -39.563801 -48.120701 -14.147600 3.165331 -8.464346 128.849852 0.000000 0.000000 69.781700 -15.624088 14.219773 4.674735 0.000000 0.000000 -23.273910 -5.368463 1.786341 127.391785 0.000000 0.000000 69.059402 21.783396 -11.599328 4.543579 0.000000 0.000000 -28.803800 
-20.274074 6.428183 38.116559 179.009281 10.055376 -14.401087 1.696777 -3.081973 -164.120827 -3.301413 7.923294 12.942974 0.000000 0.000000 0.000000 54.232045 12.099378 28.668730 0.332513 -1.229052 -98.796524 -21.874201 -11.055600 6.737000 -43.814499 -24.964600 13.963400 180.000000 -66.786003 180.000000 -30.557899 -49.108299 -86.059402 24.046900 0.553630 -3.812988 46.985901 7.068330 27.352997 -180.000000 48.940994 -180.000000 -37.690899 -48.873501 -15.456200 3.137971 -8.368124 128.855297 0.000000 0.000000 69.773903 -15.617911 14.271275 4.677146 0.000000 0.000000 -23.249470 -5.373408 1.807085 127.393336 0.000000 0.000000 69.057198 21.774740 -11.601344 4.554946 0.000000 0.000000 -28.800400 
-20.274250 6.429611 38.117220 179.023544 10.073931 -14.417343 1.600295 -3.066716 -164.193172 -3.432056 7.933405 13.201500 0.000000 0.000000 0.000000 54.309987 12.001814 28.319390 0.279276 -0.925930 -98.682344 -21.933399 -11.220000 6.868988 -43.542702 -25.095200 14.142300 -180.000000 -66.249001 180.000000 -34.221600 -45.169899 -77.944702 24.012100 0.627850 -4.269012 47.157398 6.671540 26.312988 -180.000000 49.240005 -180.000000 -33.852501 -50.012199 -17.452000 3.096869 -8.319095 128.885580 0.000000 0.000000 69.760597 -15.675232 14.302462 4.673151 0.000000 0.000000 -23.225340 -5.387003 1.794238 127.436222 0.000000 0.000000 69.012604 21.759137 -11.608787 4.569872 0.000000 0.000000 -28.791100 
-20.273814 6.431011 38.117480 179.028117 10.081216 -14.432394 1.598372 -3.064274 -164.286453 -3.409985 7.941258 13.423601 0.000000 0.000000 0.000000 54.312584 12.029307 28.164927 0.325761 -0.773410 -98.543624 -22.000200 -11.383000 6.966003 -43.318001 -25.271000 14.249500 180.000000 -66.133003 -180.000000 -34.909302 -40.696800 -74.167397 24.028099 0.621227 -4.415009 47.208000 6.641930 24.723999 -180.000000 49.591995 180.000000 -28.760200 -51.231899 -19.643700 3.078595 -8.300628 128.920337 0.000000 0.000000 69.734596 -15.719075 14.326513 4.666942 0.000000 0.000000 -23.232930 -5.393267 1.779841 127.471656 0.000000 0.000000 68.985603 21.750959 -11.619503 4.579442 0.000000 0.000000 -28.812000 
-20.273355 6.432524 38.117451 179.024962 10.106130 -14.468068 1.631701 -3.064252 -164.413750 -3.343775 7.915506 13.647610 0.000000 0.000000 0.000000 54.342926 12.088513 28.357218 0.350739 -0.834700 -98.457913 -22.034201 -11.504100 7.178986 -43.079899 -25.499599 13.860800 180.000000 -66.313004 -180.000000 -34.207298 -38.218899 -71.494400 24.118700 0.656019 -4.029999 47.134201 7.058900 22.661987 180.000000 49.936005 180.000000 -23.551300 -52.357201 -21.205299 3.058974 -8.305433 128.980553 0.000000 0.000000 69.709198 -15.749541 14.330190 4.652257 0.000000 0.000000 -23.186140 -5.397677 1.760906 127.531294 0.000000 0.000000 68.951401 21.788040 -11.605415 4.568693 0.000000 0.000000 -28.789900 
-20.273338 6.433807 38.118148 179.005994 10.123514 -14.381913 1.606345 -3.061475 -163.787726 -3.661546 7.665114 12.058243 0.000000 0.000000 0.000000 54.937977 11.906929 30.017530 0.190414 -1.531724 -98.767637 -22.341700 -11.283200 8.075989 -42.505299 -25.511700 13.229200 -180.000000 -66.672997 180.000000 -31.452801 -37.941799 -70.836899 24.645000 0.712804 -2.694000 46.728901 7.399390 20.197998 180.000000 50.270004 180.000000 -18.287500 -53.734501 -23.301201 3.080952 -8.316192 128.909410 0.000000 0.000000 69.676598 -15.726844 14.341770 4.677069 0.000000 0.000000 -23.209720 -5.393319 1.754103 127.452765 0.000000 0.000000 68.928101 21.733648 -11.610081 4.582656 0.000000 0.000000 -28.805500 
-20.273120 6.433483 38.118946 178.989936 10.142530 -14.519936 1.374764 -3.003048 -163.989824 -4.090920 7.425212 12.625598 0.000000 0.000000 0.000000 54.864160 12.268937 30.522400 0.217274 -1.711765 -98.636155 -21.928101 -11.090100 7.809998 -42.449699 -25.990700 13.312600 180.000000 -67.000000 180.000000 -28.287901 -38.862499 -72.645302 24.710800 1.119950 -2.697998 46.957500 7.544330 17.971008 -180.000000 50.604996 180.000000 -13.029300 -54.818298 -26.982599 3.072771 -8.352740 129.046026 0.000000 0.000000 69.669098 -15.727785 14.340450 4.683338 0.000000 0.000000 -23.233540 -5.389502 1.770739 127.578858 0.000000 0.000000 68.927399 21.735268 -11.585840 4.602370 0.000000 0.000000 -28.797900 
-20.272865 6.432206 38.119271 178.994785 10.157682 -14.450579 1.660090 -3.063242 -163.965072 -3.430384 7.667403 12.321671 0.000000 0.000000 0.000000 55.045128 11.942364 31.079907 0.111615 -2.216754 -98.903451 -22.393801 -11.392700 8.093994 -42.040501 -26.175200 13.565300 180.000000 -67.168999 -180.000000 -29.219999 -39.180698 -72.074997 24.478300 0.865635 -3.143005 47.097801 7.042490 16.016998 180.000000 50.977997 180.000000 -7.858970 -55.365200 -32.012699 3.071917 -8.367395 128.956594 0.000000 0.000000 69.696098 -15.710501 14.334378 4.682799 0.000000 0.000000 -23.191330 -5.415396 1.789988 127.496373 0.000000 0.000000 68.937698 21.710485 -11.560631 4.607671 0.000000 0.000000 -28.808600 
-20.271324 6.427624 38.121268 178.980230 10.157700 -14.547588 2.055387 -3.121694 -163.830349 -2.634439 7.687664 12.212031 0.000000 0.000000 0.000000 54.954849 11.853954 31.428559 0.033585 -2.717186 -99.154557 -22.743500 -11.430200 8.311005 -41.694500 -26.525400 13.836800 180.000000 -67.083000 -180.000000 -30.024599 -38.861099 -68.994499 24.176100 0.677110 -2.953003 47.188099 7.227030 13.859009 180.000000 51.324005 180.000000 -3.236120 -55.310299 -37.579300 3.069824 -8.405784 128.986166 0.000000 0.000000 69.763000 -15.694881 14.314324 4.703746 0.000000 0.000000 -23.272620 -5.420859 1.813701 127.524340 0.000000 0.000000 69.009399 21.704705 -11.547539 4.603270 0.000000 0.000000 -28.821300 
-20.272231 6.427315 38.120702 178.969102 10.173105 -14.602303 1.369116 -2.979615 -164.625202 -3.826165 7.327157 13.880287 0.000000 0.000000 0.000000 54.749074 12.579898 31.472021 0.106526 -2.371444 -98.945166 -21.789101 -11.288800 7.278992 -41.665199 -26.932501 14.361200 180.000000 -67.025002 -180.000000 -31.794399 -39.018600 -66.814102 24.740299 1.236200 -2.635986 47.108700 8.193410 11.760986 -180.000000 51.406998 180.000000 -0.535955 -55.080898 -41.332401 3.078120 -8.429379 129.038148 0.000000 0.000000 69.772697 -15.689607 14.313226 4.698769 0.000000 0.000000 -23.265680 -5.420662 1.855943 127.571047 0.000000 0.000000 69.021103 21.698327 -11.500147 4.605350 0.000000 0.000000 -28.798700 
